<?xml version="1.0" encoding="UTF-8"?>
<svg xmlns="http://www.w3.org/2000/svg" viewBox="0 0 1024 1024" width="1024" height="1024">
  <!-- Loophole infinity logo - traced from original -->
  <g transform="translate(0,1024) scale(0.1,-0.1)" fill="#f5f5f0" stroke="none">
<path d="M2888 6995 c-4 -4 -74 -17 -112 -20 -16 -2 -36 -11 -45 -21 -15 -16
<path d="M2596 6928 c-37 -9 -84 -26 -103 -38 -19 -11 -41 -20 -49 -20 -8 0
<path d="M7270 6880 c0 -5 18 -10 41 -10 24 0 38 4 34 10 -3 6 -22 10 -41 10
<path d="M7440 6878 c0 -9 5 -10 35 -11 37 0 55 3 55 11 0 4 -20 7 -45 7 -25
<path d="M7145 6864 c-40 -13 -40 -13 15 -7 30 3 59 9 65 14 14 13 -33 9 -80
<path d="M7580 6861 c0 -7 64 -30 160 -57 69 -19 115 -14 50 6 -25 7 -47 14
<path d="M3025 6840 c-22 -4 -43 -6 -47 -4 -4 2 -10 0 -13 -6 -4 -7 10 -10 42
<path d="M6870 6828 c-16 -7 -20 -12 -12 -15 8 -3 21 2 30 11 19 18 17 19 -18
<path d="M2748 6816 c-32 -7 -61 -15 -64 -19 -15 -15 4 -15 46 -1 24 8 56 16
<path d="M2900 6818 c0 -12 38 -10 45 2 4 6 -5 9 -19 8 -15 -1 -26 -6 -26 -10z"/>
<path d="M3356 6792 c-3 -5 15 -14 40 -20 58 -16 58 -16 63 0 2 7 0 10 -4 6
<path d="M6685 6777 c-27 -11 -52 -24 -55 -27 -3 -4 -13 -9 -22 -13 -17 -6
<path d="M7875 6790 c3 -5 11 -10 16 -10 6 0 7 5 4 10 -3 6 -11 10 -16 10 -6
<path d="M7308 6773 c7 -3 16 -2 19 1 4 3 -2 6 -13 5 -11 0 -14 -3 -6 -6z"/>
<path d="M7373 6774 c4 -4 23 -8 44 -10 28 -2 33 0 18 6 -24 10 -71 13 -62 4z"/>
<path d="M7480 6761 c0 -10 10 -14 63 -25 42 -10 32 9 -12 22 -46 14 -51 15
<path d="M7615 6729 c-9 -13 -6 -15 33 -24 40 -8 41 0 3 20 -20 10 -32 12 -36
<path d="M7890 6725 c7 -9 15 -13 17 -11 7 7 -7 26 -19 26 -6 0 -6 -6 2 -15z"/>
<path d="M7964 6733 c11 -11 48 -14 41 -3 -3 5 -16 10 -27 10 -12 0 -18 -3
<path d="M7690 6700 c0 -5 5 -10 10 -10 6 0 10 5 10 10 0 6 -4 10 -10 10 -5 0
<path d="M3635 6692 c18 -19 85 -52 85 -42 0 5 -17 17 -37 27 -59 27 -59 27
<path d="M6518 6683 c-10 -2 -18 -9 -18 -14 0 -13 13 -11 36 6 19 14 14 17
<path d="M7720 6671 c0 -5 18 -12 39 -16 21 -3 54 -17 72 -31 18 -13 35 -21
<path d="M2899 6649 c-6 -3 -30 -5 -55 -4 -24 1 -44 -2 -44 -6 0 -4 -19 -10
<path d="M7209 6646 c-2 -3 -27 -6 -55 -9 -28 -2 -56 -7 -62 -11 -7 -4 -16 -5
<path d="M2380 6630 c0 -5 7 -7 15 -4 8 4 15 8 15 10 0 2 -7 4 -15 4 -8 0 -15
<path d="M3755 6622 c11 -10 33 -24 49 -31 26 -11 28 -10 16 3 -7 9 -18 16
<path d="M6393 6621 c-22 -12 -24 -16 -11 -19 15 -3 78 23 78 33 0 8 -41 0
<path d="M3915 6620 c3 -5 8 -10 11 -10 2 0 4 5 4 10 0 6 -5 10 -11 10 -5 0
<path d="M8090 6616 c0 -2 7 -9 15 -16 13 -11 14 -10 9 4 -5 14 -24 23 -24 12z"/>
<path d="M2320 6590 c-9 -6 -10 -10 -3 -10 6 0 15 5 18 10 8 12 4 12 -15 0z"/>
<path d="M3950 6596 c0 -2 8 -10 18 -17 15 -13 16 -12 3 4 -13 16 -21 21 -21
<path d="M6685 6583 c-11 -3 -26 -10 -32 -15 -7 -6 -61 -35 -120 -64 -107 -53
<path d="M8160 6558 c0 -2 9 -11 20 -21 11 -9 20 -13 20 -7 0 5 -9 14 -20 20
<path d="M1977 6503 c-4 -3 -7 -11 -7 -17 0 -6 5 -5 12 2 6 6 9 14 7 17 -3 3
<path d="M3983 6480 c14 -11 29 -20 34 -20 10 1 -39 39 -51 40 -5 0 3 -9 17
<path d="M6205 6490 c-3 -5 -14 -10 -24 -10 -10 0 -26 -9 -37 -21 -22 -24
<path d="M8225 6470 c-3 -5 14 -29 39 -52 24 -24 60 -68 80 -98 32 -50 46 -70
<path d="M1990 6453 c0 -5 -16 -25 -36 -47 -19 -21 -32 -41 -29 -45 4 -3 20
<path d="M4030 6446 c0 -2 7 -7 16 -10 8 -3 12 -2 9 4 -6 10 -25 14 -25 6z"/>
<path d="M1879 6308 c-50 -62 -98 -135 -111 -166 -9 -22 -12 -24 -15 -9 -4 14
<path d="M1826 6305 c-3 -8 -1 -15 4 -15 6 0 10 7 10 15 0 8 -2 15 -4 15 -2 0
<path d="M6192 6294 c-7 -8 -8 -14 -3 -14 10 0 25 19 20 25 -2 1 -10 -3 -17
<path d="M1796 6264 c-15 -14 -22 -34 -12 -34 2 0 11 11 20 25 19 28 15 33 -8
<path d="M2049 6253 c-37 -42 -89 -111 -89 -119 0 -4 -11 -22 -25 -40 -14 -18
<path d="M8392 6168 c11 -35 25 -80 31 -100 7 -20 16 -40 20 -44 4 -4 7 -15 7
<path d="M5931 6105 c-24 -19 -47 -35 -50 -35 -3 0 -32 -25 -64 -55 -33 -30
<path d="M8546 6121 c-4 -7 -5 -15 -2 -18 9 -9 19 4 14 18 -4 11 -6 11 -12 0z"/>
<path d="M8565 6060 c8 -16 15 -37 16 -47 0 -10 3 -13 6 -6 6 17 -16 83 -28
<path d="M5540 5970 c-6 -11 -8 -20 -6 -20 3 0 10 9 16 20 6 11 8 20 6 20 -3
<path d="M5575 5800 c-33 -33 -57 -61 -54 -64 6 -6 119 102 119 114 0 13 2 15
<path d="M5393 5726 c-13 -6 -23 -15 -23 -19 0 -5 -24 -32 -52 -60 -29 -29
<path d="M5485 5710 c-3 -5 -2 -10 4 -10 5 0 13 5 16 10 3 6 2 10 -4 10 -5 0
<path d="M5449 5663 c-24 -28 -24 -28 4 -4 15 14 27 26 27 28 0 8 -8 1 -31
<path d="M5240 5585 c-8 -9 -8 -15 -2 -15 12 0 26 19 19 26 -2 2 -10 -2 -17
<path d="M8550 5490 c0 -5 5 -10 11 -10 5 0 7 5 4 10 -3 6 -8 10 -11 10 -2 0
<path d="M5180 5455 c-7 -9 -8 -15 -2 -15 5 0 12 7 16 15 3 8 4 15 2 15 -2 0
<path d="M5136 5414 c-10 -25 1 -29 14 -5 6 12 7 21 1 21 -5 0 -12 -7 -15 -16z"/>
<path d="M5020 5297 c0 -10 -7 -20 -15 -23 -8 -4 -15 -13 -15 -20 0 -11 4 -12
<path d="M4942 5202 c-13 -32 -175 -202 -193 -202 -5 0 -9 -7 -9 -16 0 -9 -21
<path d="M8550 5178 c0 -13 -3 -34 -7 -48 -3 -14 -3 -22 1 -18 13 11 24 78 15
<path d="M5138 5113 c-2 -5 11 -23 29 -41 18 -19 33 -30 33 -24 0 5 -9 17 -20
<path d="M8415 4980 c3 -5 8 -10 11 -10 2 0 4 5 4 10 0 6 -5 10 -11 10 -5 0
<path d="M5247 4963 c4 -10 12 -22 20 -26 7 -4 13 -15 13 -24 0 -8 11 -28 25
<path d="M5361 4969 c-1 -9 8 -24 19 -34 11 -10 20 -13 20 -7 0 7 -4 12 -8 12
<path d="M8621 4932 c-6 -12 -11 -29 -11 -40 0 -19 -69 -228 -95 -287 -7 -16
<path d="M8407 4933 c-4 -3 -7 -11 -7 -17 0 -6 5 -5 12 2 6 6 9 14 7 17 -3 3
<path d="M8386 4873 c-4 -15 -15 -46 -25 -68 -31 -64 -51 -135 -39 -135 6 0 7
<path d="M5430 4882 c0 -10 22 -32 32 -32 15 0 8 15 -12 28 -11 7 -20 9 -20 4z"/>
<path d="M5470 4832 c0 -14 90 -105 97 -98 3 3 1 6 -5 6 -7 0 -12 7 -12 15 0
<path d="M5358 4809 c6 -9 9 -18 6 -21 -3 -3 11 -21 30 -40 20 -19 36 -39 36
<path d="M5570 4711 c0 -5 16 -21 35 -35 19 -15 35 -34 35 -42 0 -7 6 -14 14
<path d="M4540 4518 c-12 -22 -12 -22 6 -6 10 10 15 20 12 24 -4 3 -12 -5 -18
<path d="M8271 4504 c0 -11 3 -14 6 -6 3 7 2 16 -1 19 -3 4 -6 -2 -5 -13z"/>
<path d="M1860 4490 c0 -5 5 -10 11 -10 5 0 7 5 4 10 -3 6 -8 10 -11 10 -2 0
<path d="M4501 4484 c0 -11 3 -14 6 -6 3 7 2 16 -1 19 -3 4 -6 -2 -5 -13z"/>
<path d="M8246 4465 c-9 -26 -7 -32 5 -12 6 10 9 21 6 23 -2 3 -7 -2 -11 -11z"/>
<path d="M1880 4453 c0 -11 11 -33 24 -48 14 -16 24 -31 22 -34 -2 -3 10 -19
<path d="M4465 4440 c-3 -6 1 -7 9 -4 18 7 21 14 7 14 -6 0 -13 -4 -16 -10z"/>
<path d="M8215 4423 c-5 -10 -7 -23 -6 -30 1 -7 -7 -18 -19 -25 -11 -7 -20
<path d="M5850 4421 c0 -5 7 -11 14 -14 10 -4 13 -1 9 9 -6 15 -23 19 -23 5z"/>
<path d="M4416 4383 c-6 -14 -5 -15 5 -6 7 7 10 15 7 18 -3 3 -9 -2 -12 -12z"/>
<path d="M5700 4390 c0 -5 5 -10 11 -10 5 0 7 5 4 10 -3 6 -8 10 -11 10 -2 0
<path d="M5890 4395 c0 -10 46 -57 75 -78 30 -22 30 -22 10 3 -54 68 -85 95
<path d="M1790 4361 c0 -14 52 -91 62 -91 4 0 -6 23 -23 50 -30 50 -39 59 -39
<path d="M5802 4291 c13 -17 29 -30 36 -30 18 -1 15 5 -13 34 -35 35 -52 32
<path d="M1970 4295 c0 -2 11 -15 25 -29 14 -14 25 -28 25 -31 0 -4 6 -12 13
<path d="M1850 4251 c0 -5 6 -16 13 -23 7 -7 50 -57 96 -110 45 -54 88 -98 94
<path d="M5867 4244 c3 -7 9 -14 14 -14 14 0 10 17 -5 23 -10 4 -13 1 -9 -9z"/>
<path d="M6090 4221 c9 -18 39 -43 80 -66 8 -5 4 4 -8 20 -13 16 -36 37 -53
<path d="M4225 4200 c-3 -5 -1 -10 4 -10 6 0 11 5 11 10 0 6 -2 10 -4 10 -3 0
<path d="M3756 4109 c-15 -12 -25 -24 -22 -26 3 -3 12 2 20 10 9 8 21 17 28
<path d="M6019 4110 c13 -11 28 -20 35 -20 6 1 0 10 -13 20 -13 11 -28 20 -35
<path d="M8255 4120 c-3 -6 1 -7 9 -4 18 7 21 14 7 14 -6 0 -13 -4 -16 -10z"/>
<path d="M6230 4110 c0 -5 3 -10 8 -10 4 0 20 -11 36 -25 16 -14 34 -25 39
<path d="M1909 4082 c5 -9 19 -26 31 -37 18 -16 20 -16 14 -2 -3 9 -10 17 -14
<path d="M6070 4082 c0 -5 7 -15 15 -22 8 -7 15 -8 15 -2 0 5 -7 15 -15 22 -8
<path d="M8280 4084 c0 -5 -18 -29 -40 -53 -22 -24 -40 -47 -40 -52 0 -5 -3
<path d="M3696 4064 c-11 -8 -16 -14 -10 -14 13 0 39 18 34 24 -3 2 -14 -2
<path d="M3621 4019 c-18 -11 -31 -22 -29 -24 7 -8 57 19 63 33 6 16 6 16 -34
<path d="M6163 3995 c26 -25 50 -45 54 -45 3 0 11 -6 17 -13 17 -21 129 -80
<path d="M3540 3978 c-14 -7 -48 -22 -76 -35 -28 -13 -54 -23 -57 -23 -3 0
<path d="M2132 3940 c8 -12 23 -20 38 -19 24 0 24 1 4 9 -12 5 -25 13 -29 19
<path d="M6525 3930 c3 -5 11 -10 16 -10 6 0 7 5 4 10 -3 6 -11 10 -16 10 -6
<path d="M6575 3907 c30 -21 87 -47 99 -47 6 1 -14 14 -44 30 -57 30 -89 40
<path d="M2638 3903 c6 -2 18 -2 25 0 6 3 1 5 -13 5 -14 0 -19 -2 -12 -5z"/>
<path d="M3280 3890 c0 -4 -15 -11 -32 -15 -18 -4 -36 -9 -40 -10 -5 -1 -23
<path d="M2264 3841 c15 -17 76 -46 76 -37 0 5 -79 56 -86 56 -4 0 1 -9 10
<path d="M6700 3850 c14 -9 73 -28 111 -35 9 -2 32 -8 50 -13 19 -5 42 -6 52
<path d="M2575 3840 c3 -5 14 -10 23 -10 15 0 15 2 2 10 -20 13 -33 13 -25 0z"/>
<path d="M7587 3834 c-3 -3 -19 -8 -34 -9 -34 -4 -93 -27 -93 -37 0 -9 38 -4
<path d="M2821 3791 c-8 -6 -9 -11 -3 -15 6 -3 14 -1 17 5 9 14 2 20 -14 10z"/>
<path d="M6530 3766 c0 -2 7 -7 16 -10 8 -3 12 -2 9 4 -6 10 -25 14 -25 6z"/>
<path d="M6585 3734 c22 -16 35 -18 35 -5 0 5 -12 11 -27 14 -26 5 -26 4 -8
<path d="M2610 3705 c40 -15 85 -20 60 -6 -8 5 -33 11 -55 14 -40 6 -40 6 -5
<path d="M6657 3707 c17 -7 35 -15 39 -19 4 -5 17 -8 28 -7 27 1 -50 38 -79
<path d="M7743 3697 c-13 -5 -23 -13 -23 -18 0 -10 39 1 46 13 9 15 1 16 -23
<path d="M6750 3680 c0 -4 21 -13 48 -20 26 -7 68 -19 95 -27 26 -8 52 -13 58
<path d="M2765 3670 c17 -4 41 -8 55 -8 25 0 25 0 0 8 -14 4 -38 8 -55 8 -30
<path d="M7690 3670 c-13 -8 -12 -10 3 -10 9 0 17 5 17 10 0 12 -1 12 -20 0z"/>
<path d="M2858 3653 c7 -3 16 -2 19 1 4 3 -2 6 -13 5 -11 0 -14 -3 -6 -6z"/>
<path d="M6985 3619 c4 -6 13 -8 21 -5 8 3 14 1 14 -4 0 -6 11 -10 25 -10 35
<path d="M7085 3600 c-4 -6 13 -10 45 -10 32 0 49 4 45 10 -3 6 -24 10 -45 10
  </g>
</svg>
