<?xml version="1.0" encoding="UTF-8"?>
<svg xmlns="http://www.w3.org/2000/svg" viewBox="0 0 1024 1024" width="1024" height="1024">
<g transform="translate(0.000000,1024.000000) scale(0.100000,-0.100000)"
fill="#f5f5f0" stroke="none">
<path d="M2789 7045 c-5 -5 -30 -11 -54 -12 -25 -1 -54 -7 -64 -13 -11 -5 -28
-10 -39 -10 -33 0 -194 -73 -213 -97 -6 -7 -19 -13 -28 -13 -10 0 -27 -9 -39
-20 -12 -11 -26 -20 -32 -20 -5 0 -10 -4 -10 -8 0 -5 -12 -15 -27 -23 -46 -23
-113 -70 -113 -78 0 -4 -16 -16 -35 -27 -19 -10 -35 -22 -35 -26 0 -5 -5 -8
-11 -8 -5 0 -7 5 -4 10 15 24 -9 5 -76 -60 -40 -38 -78 -70 -83 -70 -6 0 -24
-16 -41 -36 -16 -19 -47 -54 -67 -77 -21 -23 -38 -45 -38 -48 0 -4 -13 -22
-30 -40 -16 -19 -30 -37 -30 -40 0 -3 -13 -23 -30 -44 -34 -43 -110 -197 -114
-230 -1 -5 -9 -25 -19 -44 -17 -30 -25 -55 -32 -101 -1 -8 -7 -28 -14 -44 -6
-16 -10 -34 -8 -40 2 -6 -2 -28 -9 -50 -8 -21 -14 -56 -14 -77 0 -21 -6 -58
-14 -81 -14 -43 -33 -136 -35 -173 -1 -16 -6 -124 -12 -255 -1 -8 2 -55 6
-105 3 -49 6 -102 6 -117 -1 -14 6 -53 15 -85 20 -74 31 -123 45 -197 5 -33
21 -82 34 -110 13 -28 26 -66 30 -83 4 -18 11 -33 17 -33 6 0 8 -7 5 -15 -4
-8 -2 -17 4 -20 5 -4 19 -28 31 -53 12 -26 32 -60 44 -77 12 -16 24 -42 28
-57 3 -16 11 -28 16 -28 6 0 10 -7 10 -15 0 -8 7 -15 15 -15 8 0 15 -5 15 -11
0 -7 8 -19 18 -28 10 -9 28 -33 41 -53 12 -21 27 -38 32 -38 5 0 20 -19 35
-41 14 -23 39 -46 55 -52 16 -6 31 -19 34 -28 3 -9 19 -22 35 -29 16 -7 32
-21 35 -31 4 -11 11 -17 16 -14 5 4 9 1 9 -5 0 -6 5 -8 10 -5 6 3 10 1 10 -5
0 -6 5 -8 10 -5 6 3 10 -3 10 -15 0 -15 8 -22 30 -26 17 -4 30 -9 30 -13 0 -4
21 -18 48 -31 26 -14 49 -29 51 -33 3 -9 52 -31 63 -29 3 1 12 -5 18 -13 7 -8
22 -15 34 -15 12 0 26 -4 32 -9 5 -6 25 -12 44 -14 19 -2 46 -10 60 -17 14 -8
29 -13 34 -11 6 1 19 -2 30 -8 28 -13 117 -33 123 -27 2 2 19 0 36 -5 32 -9
144 -22 182 -21 136 3 188 6 230 14 28 5 64 11 80 13 79 11 105 18 105 27 0 5
6 8 13 5 6 -2 26 0 42 5 17 5 37 11 45 13 14 3 128 46 180 67 62 26 76 33 90
44 8 7 18 13 23 13 4 0 32 12 62 26 31 14 59 25 64 25 5 0 23 13 41 30 18 17
36 30 41 30 4 0 29 15 55 33 25 17 53 37 62 42 44 28 99 75 191 164 42 40 86
80 98 88 12 8 25 23 28 32 3 10 14 22 25 27 10 5 32 28 47 51 15 23 61 76 101
117 39 41 72 80 72 85 0 6 7 11 15 11 8 0 15 6 15 14 0 7 30 44 68 82 37 38
81 92 99 119 18 28 41 57 52 65 12 8 21 19 21 25 0 6 10 20 23 31 26 24 72 83
72 94 0 5 10 17 23 28 12 11 22 24 22 30 0 6 6 15 13 19 8 4 17 16 20 26 7 17
8 17 37 -3 16 -12 30 -28 30 -36 0 -23 49 -101 76 -123 13 -10 24 -23 24 -28
0 -6 9 -18 20 -28 10 -9 29 -36 41 -59 11 -22 27 -44 34 -49 8 -4 16 -20 20
-37 4 -16 17 -40 31 -52 13 -13 24 -27 24 -31 0 -7 32 -56 55 -83 6 -7 19 -24
30 -39 22 -29 79 -94 97 -110 6 -5 42 -40 81 -77 39 -38 73 -68 77 -68 3 0 14
-13 23 -30 10 -16 24 -30 31 -30 8 0 16 -7 20 -15 3 -8 12 -15 20 -15 8 0 18
-9 21 -21 4 -11 12 -18 18 -16 7 2 20 -5 29 -15 9 -11 19 -19 22 -19 20 3 26
-1 26 -14 0 -8 4 -15 9 -15 5 0 12 -8 15 -18 4 -10 22 -25 42 -32 20 -8 40
-22 45 -32 5 -10 19 -18 30 -18 15 0 19 -5 15 -15 -4 -11 6 -21 32 -33 20 -9
43 -23 50 -29 7 -7 22 -13 31 -13 10 0 36 -16 57 -35 21 -19 42 -35 47 -35 6
0 16 -8 23 -17 7 -10 16 -18 21 -18 4 -1 18 -6 31 -13 12 -7 26 -11 31 -8 4 3
17 -3 28 -13 11 -10 30 -22 44 -26 13 -4 29 -12 36 -17 7 -5 17 -7 23 -3 5 3
10 2 10 -4 0 -6 11 -13 25 -17 13 -3 29 -12 36 -20 7 -8 20 -12 31 -8 11 3 27
-1 36 -9 9 -8 37 -20 62 -27 25 -7 50 -16 57 -22 7 -5 17 -7 23 -3 5 3 15 3
22 -1 6 -4 23 -9 37 -10 28 -3 136 -21 180 -29 48 -10 324 -15 335 -6 6 4 18
9 26 9 8 1 43 3 77 6 34 2 72 10 85 18 13 7 28 13 33 13 6 1 35 9 65 20 30 10
62 20 70 21 20 3 81 24 100 35 8 5 26 14 40 20 14 6 39 21 57 35 17 13 36 24
41 24 4 0 26 15 48 33 21 18 55 44 74 59 42 31 58 44 158 128 46 38 102 99
137 148 33 45 69 93 81 105 11 12 19 28 16 35 -2 7 1 12 7 12 6 0 11 7 11 15
0 8 5 15 10 15 6 0 10 14 10 30 0 20 5 30 15 30 13 0 19 19 18 57 -1 7 3 13 7
13 5 0 14 16 21 35 7 19 17 35 22 35 4 0 6 8 3 18 -4 10 1 38 9 62 8 23 15 55
15 70 0 16 4 30 10 32 9 3 37 95 38 128 3 61 6 81 13 86 5 2 6 11 2 19 -3 9
-1 21 5 28 9 11 20 66 27 143 2 17 6 41 10 53 4 12 2 28 -5 36 -6 7 -7 16 -2
19 23 14 15 603 -9 631 -4 6 -8 20 -7 30 2 27 -42 184 -53 191 -5 3 -9 13 -9
24 0 10 -6 20 -14 23 -9 4 -12 14 -9 28 4 15 3 20 -5 15 -8 -4 -12 0 -12 12 0
10 -9 37 -20 60 -11 22 -20 46 -20 52 0 5 -4 10 -9 10 -5 0 -15 15 -21 34 -6
19 -23 50 -38 70 -15 19 -40 53 -56 74 -15 22 -39 46 -52 53 -13 7 -24 18 -24
26 0 15 -70 113 -81 113 -3 0 -26 19 -51 43 -107 100 -148 131 -191 145 -31
10 -44 19 -40 28 3 9 -2 14 -16 14 -12 0 -30 9 -41 20 -11 11 -27 20 -35 20
-8 0 -15 4 -15 9 0 5 -10 11 -22 14 -13 3 -63 20 -113 37 -49 18 -121 38 -160
45 -216 42 -233 44 -330 39 -55 -3 -119 -5 -143 -5 -31 0 -41 -3 -35 -12 5 -9
3 -9 -9 0 -8 7 -17 10 -20 7 -3 -3 -21 -7 -41 -10 -19 -2 -50 -11 -70 -19 -20
-8 -50 -15 -67 -15 -16 0 -30 -5 -30 -11 0 -5 -5 -7 -10 -4 -6 4 -17 1 -25 -5
-8 -6 -19 -9 -24 -6 -5 4 -13 1 -18 -6 -4 -7 -33 -21 -63 -31 -71 -24 -111
-42 -203 -90 -23 -12 -50 -23 -60 -24 -10 -2 -38 -17 -62 -33 -24 -17 -48 -30
-53 -30 -11 0 -125 -73 -157 -100 -11 -10 -36 -26 -55 -36 -19 -10 -60 -39
-90 -64 -30 -25 -71 -57 -90 -70 -41 -29 -42 -29 -98 -75 -24 -19 -48 -35 -53
-35 -5 0 -22 -13 -37 -30 -16 -16 -33 -30 -37 -30 -4 0 -36 -28 -70 -62 -34
-35 -70 -70 -81 -79 -30 -26 -104 -106 -104 -113 0 -3 -19 -23 -42 -44 -23
-20 -60 -57 -83 -80 -22 -24 -82 -87 -133 -140 -51 -54 -104 -109 -117 -123
-14 -14 -25 -31 -25 -37 0 -6 -9 -18 -21 -26 -12 -8 -18 -19 -14 -25 3 -6 -1
-11 -9 -11 -9 0 -16 8 -16 19 0 11 -10 32 -23 48 -37 44 -85 117 -84 128 0 6
-10 14 -21 20 -11 5 -30 28 -42 52 -12 24 -26 43 -32 43 -11 0 -47 40 -48 54
0 5 -20 29 -45 54 -25 24 -45 49 -45 53 0 5 -6 9 -14 9 -8 0 -17 8 -20 18 -4
10 -20 34 -37 53 -17 19 -38 44 -46 57 -9 12 -20 22 -25 22 -12 0 -47 41 -48
55 0 6 -13 19 -29 30 -16 10 -28 22 -25 26 2 4 -6 9 -18 12 -12 4 -19 9 -16
12 4 4 0 14 -8 23 -40 47 -126 132 -169 167 -27 22 -62 54 -79 70 -17 17 -44
38 -59 48 -15 10 -33 29 -39 43 -6 13 -17 24 -25 24 -7 0 -13 5 -13 10 0 6 -7
10 -16 10 -9 0 -30 12 -48 26 -66 54 -169 115 -185 109 -8 -3 -12 -3 -8 1 8 9
-89 74 -109 74 -7 0 -14 4 -16 8 -4 12 -131 62 -156 62 -11 0 -25 7 -32 15 -7
8 -16 13 -20 10 -4 -3 -24 2 -44 10 -19 8 -48 15 -64 15 -16 0 -32 3 -35 7 -4
3 -30 6 -59 6 -29 -1 -59 4 -65 9 -7 6 -19 8 -27 5 -8 -3 -17 -3 -21 1 -11 11
-315 8 -326 -3z m226 -60 c109 -12 187 -24 193 -31 7 -7 -82 0 -128 11 -72 16
-275 4 -345 -21 -19 -6 -19 -6 -4 10 9 10 29 19 45 21 38 3 108 16 112 20 3 3
31 1 127 -10z m-340 -56 c-40 -10 -103 -34 -111 -42 -4 -4 -16 -7 -26 -7 -10
0 -18 -4 -18 -8 0 -4 -8 -8 -18 -9 -10 -1 -43 -15 -73 -33 -30 -17 -70 -38
-89 -48 -19 -9 -41 -25 -48 -34 -7 -10 -18 -18 -24 -18 -12 0 -85 -55 -114
-87 -26 -28 -34 -29 -27 -3 3 10 8 18 12 17 8 -2 28 14 90 73 26 25 56 47 67
48 10 2 23 10 27 18 4 8 15 14 22 14 8 0 15 4 15 8 0 4 16 14 35 21 19 7 35
17 35 22 0 5 6 9 14 9 8 0 30 9 49 20 43 25 165 57 192 51 16 -4 15 -6 -10
-12z m4670 -49 c4 -6 -10 -10 -34 -10 -23 0 -41 5 -41 10 0 6 15 10 34 10 19
0 38 -4 41 -10z m185 -2 c0 -8 -18 -11 -55 -11 -30 1 -35 2 -35 11 0 4 20 7
45 7 25 0 45 -3 45 -7z m-305 -7 c-6 -5 -35 -11 -65 -14 l-55 -6 40 13 c47 16
94 20 80 7z m445 -23 c25 -6 50 -14 55 -17 6 -3 12 -6 15 -7 3 0 25 -7 50 -14
65 -20 19 -25 -50 -6 -96 27 -160 50 -160 57 0 7 14 5 90 -13z m-4515 -10 c11
-6 125 -23 138 -20 4 2 18 -4 30 -13 21 -15 21 -15 -6 -15 -16 0 -37 4 -47 10
-19 10 -185 24 -263 21 -32 -1 -46 2 -42 9 3 6 9 8 13 6 4 -2 25 0 47 4 45 8
115 7 130 -2z m3733 -14 c-9 -9 -22 -14 -30 -11 -8 3 -4 8 12 15 35 15 37 14
18 -4z m-4058 -1 c0 -5 -13 -9 -28 -10 -16 -1 -48 -9 -72 -17 -42 -14 -61 -14
-46 1 6 6 106 30 134 32 6 1 12 -2 12 -6z m115 -3 c-7 -12 -45 -14 -45 -2 0 4
11 9 26 10 14 1 23 -2 19 -8z m463 -34 c22 -8 43 -11 47 -8 4 4 6 1 4 -6 -5
-16 -5 -16 -63 0 -25 6 -43 15 -40 20 7 10 4 10 52 -6z m3337 4 c-3 -5 -10
-10 -15 -10 -5 0 -36 -16 -69 -35 -32 -19 -62 -35 -65 -35 -14 0 -5 21 12 27
9 4 19 9 22 13 5 7 100 48 113 49 5 1 5 -3 2 -9z m1150 0 c3 -5 2 -10 -4 -10
-5 0 -13 5 -16 10 -3 6 -2 10 4 10 5 0 13 -4 16 -10z m-568 -16 c-3 -3 -12 -4
-19 -1 -8 3 -5 6 6 6 11 1 17 -2 13 -5z m108 -4 c15 -6 10 -8 -18 -6 -21 2
-40 6 -44 10 -9 9 38 6 62 -4z m96 -12 c44 -13 54 -32 12 -22 -53 11 -63 15
-63 25 0 12 5 11 51 -3z m149 -54 c0 -5 -61 5 -69 12 -1 1 0 7 4 13 6 11 65
-12 65 -25z m225 25 c11 -17 -1 -21 -15 -4 -8 9 -8 15 -2 15 6 0 14 -5 17 -11z
m100 1 c4 -6 -2 -9 -14 -7 -29 4 -39 17 -13 17 11 0 24 -5 27 -10z m-295 -30
c0 -5 -4 -10 -10 -10 -5 0 -10 5 -10 10 0 6 5 10 10 10 6 0 10 -4 10 -10z
m-4027 -23 c20 -10 37 -22 37 -27 0 -10 -67 23 -85 42 -11 12 -11 12 48 -15z
m2853 -2 c-23 -17 -36 -19 -36 -6 0 5 8 12 18 14 32 9 37 6 18 -8z m1268 -21
c55 -27 73 -41 65 -49 -3 -2 -20 6 -38 19 -18 14 -51 28 -72 31 -21 4 -39 11
-39 16 0 16 31 10 84 -17z m-4542 -22 c31 -11 59 -18 61 -15 3 2 18 -4 33 -13
21 -14 29 -15 32 -6 3 10 9 10 28 -3 13 -8 35 -16 49 -17 14 -1 25 -6 25 -10
0 -4 6 -8 14 -8 7 0 19 -7 26 -15 7 -8 16 -13 20 -10 5 3 11 1 15 -4 3 -6 12
-8 19 -5 8 3 17 1 21 -5 3 -6 14 -11 24 -11 10 0 24 -7 31 -15 7 -8 19 -15 28
-15 8 0 20 -7 27 -17 7 -9 21 -17 32 -18 10 0 29 -11 41 -23 13 -13 26 -21 30
-18 4 2 18 -9 31 -25 13 -16 28 -29 33 -29 6 0 25 -12 43 -27 18 -16 45 -37
61 -48 16 -11 43 -35 60 -52 17 -18 36 -33 42 -33 7 0 12 -4 12 -10 0 -5 9
-10 20 -10 12 0 17 -5 14 -13 -3 -8 6 -18 21 -25 14 -6 25 -16 25 -22 0 -15
38 -50 55 -50 9 0 18 -7 21 -15 8 -21 104 -122 104 -110 0 6 5 2 11 -7 5 -10
17 -18 24 -18 8 0 15 -8 15 -17 0 -21 29 -53 47 -53 8 0 11 -4 8 -10 -3 -5 7
-23 24 -39 16 -16 28 -31 25 -33 -2 -3 7 -11 21 -18 14 -7 25 -17 25 -22 0 -9
11 -24 43 -59 9 -10 17 -22 17 -25 0 -3 23 -28 50 -56 28 -28 50 -55 50 -62 0
-6 18 -31 40 -56 22 -25 40 -50 40 -57 0 -7 6 -16 13 -20 6 -4 22 -22 34 -39
l21 -31 -123 -125 c-67 -69 -135 -144 -150 -167 -15 -22 -34 -41 -41 -41 -8 0
-14 -7 -14 -16 0 -9 -15 -30 -32 -49 -18 -18 -57 -59 -86 -91 -72 -79 -259
-276 -352 -372 -74 -76 -101 -99 -230 -203 -36 -29 -67 -56 -70 -60 -3 -3 -59
-37 -124 -74 -115 -66 -340 -155 -393 -155 -12 0 -24 -4 -27 -9 -7 -11 -143
-27 -301 -35 -27 -1 -86 4 -130 12 -44 7 -92 15 -107 15 -16 1 -28 6 -28 11 0
4 -6 6 -14 3 -8 -3 -31 3 -52 14 -21 10 -49 19 -61 19 -13 0 -23 5 -23 10 0 6
-9 10 -20 10 -11 0 -20 4 -20 9 0 5 -12 14 -27 20 -16 6 -35 15 -43 19 -8 5
-26 15 -40 22 -64 34 -65 35 -181 142 -16 15 -29 32 -29 38 0 5 -4 10 -8 10
-4 0 -19 18 -32 40 -14 22 -33 42 -42 45 -10 4 -21 17 -24 31 -3 13 -10 24
-14 24 -4 0 -27 39 -50 88 -23 48 -51 105 -62 126 -59 117 -102 280 -113 421
-9 129 -12 385 -4 385 4 0 6 7 5 16 -1 9 4 39 11 68 8 28 17 65 19 81 3 17 10
43 16 58 6 15 8 30 5 34 -3 3 0 12 8 20 8 8 15 25 15 38 0 13 4 25 9 27 6 2
11 14 13 28 5 31 39 110 49 110 4 0 10 11 13 25 4 14 11 25 16 25 6 0 10 9 10
19 0 21 30 84 43 89 4 2 7 12 7 23 0 10 4 19 8 19 4 0 15 12 24 28 25 41 191
222 204 222 3 0 24 19 48 43 24 23 47 42 52 43 26 3 54 18 54 28 0 12 35 46
47 46 10 0 118 52 123 60 8 11 53 24 73 21 10 -1 24 2 30 7 7 5 31 13 55 17
23 4 42 10 42 14 0 4 20 7 44 6 25 -1 49 1 55 4 5 4 76 6 158 5 120 -1 159 -6
205 -22z m4086 2 c61 1 112 -2 112 -5 0 -9 49 -23 85 -25 17 0 43 -6 58 -13
16 -6 33 -8 38 -5 6 3 15 2 22 -3 7 -5 31 -15 55 -23 23 -7 42 -19 42 -27 0
-7 9 -13 19 -13 10 0 21 -6 24 -14 3 -8 19 -17 36 -21 17 -4 31 -11 31 -16 0
-5 7 -9 16 -9 8 0 21 -6 29 -12 7 -7 28 -24 46 -38 18 -14 50 -42 72 -63 21
-20 43 -34 49 -31 6 4 9 1 6 -6 -4 -13 7 -28 75 -103 15 -16 27 -38 27 -48 0
-11 5 -19 10 -19 6 0 10 -11 10 -24 0 -13 7 -26 15 -30 8 -3 15 -17 15 -31 0
-15 4 -24 8 -21 11 6 30 -29 36 -66 3 -15 8 -33 12 -40 5 -7 9 -30 10 -51 1
-20 7 -44 14 -52 7 -8 14 -38 16 -65 2 -28 8 -60 14 -71 6 -11 14 -41 17 -67
8 -70 7 -339 -2 -406 -8 -58 -8 -58 16 -51 21 7 22 6 10 -8 -7 -9 -17 -15 -21
-12 -11 7 -17 -15 -14 -53 1 -17 -2 -35 -7 -38 -5 -3 -9 -18 -9 -34 0 -16 -4
-32 -10 -35 -6 -4 -5 -13 2 -25 12 -18 13 -18 25 8 16 32 12 15 -18 -93 -13
-44 -27 -81 -31 -83 -4 -2 -8 -13 -8 -24 0 -27 -33 -118 -42 -118 -5 0 -8 -6
-8 -12 0 -7 -18 -50 -40 -96 -22 -45 -42 -93 -46 -106 -3 -14 -12 -27 -20 -30
-8 -3 -14 -12 -14 -21 0 -8 -4 -15 -10 -15 -5 0 -10 -5 -10 -11 0 -6 -6 -16
-12 -23 -7 -7 -24 -28 -38 -46 -21 -28 -77 -86 -160 -165 -9 -7 -31 -25 -50
-38 -19 -13 -58 -40 -87 -60 -28 -20 -63 -39 -78 -43 -14 -3 -29 -12 -33 -18
-8 -14 -92 -49 -100 -42 -2 3 -18 -2 -34 -10 -16 -9 -37 -13 -45 -9 -9 3 -24
-2 -33 -10 -10 -9 -28 -17 -41 -17 -13 -1 -29 -5 -34 -9 -12 -9 -14 -9 -155
-12 -107 -2 -235 6 -280 19 -14 3 -34 7 -45 9 -48 7 -85 18 -85 26 0 5 -13 9
-29 9 -16 0 -42 7 -57 15 -16 8 -37 15 -46 15 -10 0 -18 4 -18 9 0 5 -15 14
-32 20 -38 13 -189 100 -218 126 -11 10 -23 16 -26 12 -3 -3 -22 12 -42 34
-20 21 -41 39 -47 39 -5 0 -26 15 -46 33 -20 17 -49 42 -65 54 -57 44 -129
109 -194 176 -37 37 -75 67 -84 67 -9 0 -16 5 -16 10 0 13 -43 56 -52 52 -5
-1 -8 5 -8 13 0 8 -9 19 -20 25 -11 6 -19 16 -17 22 1 7 -8 17 -20 23 -13 5
-23 15 -23 22 0 6 -20 32 -45 57 -25 26 -45 49 -45 52 0 10 -65 64 -77 64 -7
0 -13 5 -13 11 0 6 -13 27 -30 46 -16 18 -30 39 -30 44 0 6 -7 9 -15 5 -8 -3
-15 -1 -15 5 0 10 -10 24 -42 60 -10 10 -18 23 -18 29 0 5 -6 13 -13 17 -7 4
-28 28 -46 53 -19 25 -56 66 -84 92 -55 53 -55 53 7 123 15 17 34 42 44 58 9
15 21 27 27 27 5 0 21 16 34 35 22 33 108 121 304 312 46 46 82 85 79 88 -3 3
1 5 9 5 8 0 47 32 88 70 40 39 77 70 82 70 4 0 15 10 23 21 14 21 39 38 82 58
12 5 30 21 41 35 12 14 44 37 72 51 28 14 51 30 51 35 0 5 6 7 13 4 7 -2 24 7
37 21 13 14 28 25 33 25 5 0 16 9 25 19 10 11 33 29 53 39 65 36 84 47 89 53
3 3 26 15 52 28 26 12 57 30 70 40 20 16 85 53 98 56 11 3 47 19 97 41 28 13
56 24 61 24 5 0 27 8 48 17 22 10 44 18 49 19 6 0 17 3 25 7 33 12 104 26 112
21 4 -3 13 -2 20 2 6 4 34 9 62 11 28 3 53 6 55 9 2 2 9 0 15 -5 6 -4 62 -8
124 -7z m-4938 2 c0 -2 -7 -6 -15 -10 -8 -3 -15 -1 -15 4 0 6 7 10 15 10 8 0
15 -2 15 -4z m1360 -11 c7 -8 18 -15 25 -15 7 0 18 -7 25 -16 12 -13 10 -14
-16 -3 -33 14 -74 49 -57 49 6 0 16 -7 23 -15z m2690 10 c0 -10 -63 -36 -78
-33 -13 3 -11 7 11 19 26 14 67 22 67 14z m-2530 -15 c0 -5 -2 -10 -4 -10 -3
0 -8 5 -11 10 -3 6 -1 10 4 10 6 0 11 -4 11 -10z m4184 -16 c5 -14 4 -15 -9
-4 -17 14 -19 20 -6 20 5 0 12 -7 15 -16z m-5779 -14 c-3 -5 -12 -10 -18 -10
-7 0 -6 4 3 10 19 12 23 12 15 0z m1636 -7 c13 -16 12 -17 -3 -4 -10 7 -18 15
-18 17 0 8 8 3 21 -13z m2749 2 c0 -3 -35 -21 -77 -41 -43 -20 -89 -44 -103
-54 -14 -9 -36 -20 -50 -23 -14 -4 -40 -17 -59 -29 -52 -34 -104 -66 -121 -74
-8 -4 -25 -16 -36 -26 -14 -12 -24 -16 -28 -9 -4 5 5 17 19 26 14 8 37 23 53
32 53 34 108 64 215 117 59 29 113 58 120 64 10 9 34 17 60 21 4 0 7 -1 7 -4z
m1480 -55 c0 -6 -9 -2 -20 7 -11 10 -20 19 -20 21 0 1 9 -2 20 -8 11 -6 20
-15 20 -20z m-6218 -42 c-7 -7 -12 -8 -12 -2 0 14 12 26 19 19 2 -3 -1 -11 -7
-17z m2018 -8 c14 -11 21 -20 17 -20 -5 0 -20 9 -34 20 -14 11 -22 20 -17 20
5 0 20 -9 34 -20z m2230 12 c0 -5 -10 -13 -23 -19 -12 -6 -61 -40 -109 -77
-48 -36 -90 -66 -94 -66 -7 0 -102 -76 -119 -95 -5 -6 -44 -36 -85 -67 -41
-30 -90 -70 -108 -87 -19 -18 -36 -30 -39 -27 -8 8 105 114 129 122 10 3 18 9
18 14 0 5 21 23 48 41 26 17 52 37 57 43 6 6 33 29 60 51 28 22 52 43 53 47 2
5 8 8 12 8 13 0 92 55 114 79 11 12 27 21 37 21 10 0 21 5 24 10 8 12 25 13
25 2z m2020 -26 c0 -8 9 -21 19 -28 18 -13 92 -115 119 -165 8 -13 20 -27 28
-30 8 -3 14 -10 14 -16 0 -5 12 -25 26 -44 14 -19 24 -37 21 -39 -3 -3 -14 8
-25 23 -62 83 -76 103 -108 153 -20 30 -56 74 -80 98 -25 23 -42 47 -39 52 9
15 25 12 25 -4z m-6249 -23 c-18 -33 -69 -88 -76 -82 -3 4 10 24 29 45 20 22
36 42 36 47 0 4 5 7 10 7 7 0 7 -6 1 -17z m2054 -3 c3 -6 -1 -7 -9 -4 -18 7
-21 14 -7 14 6 0 13 -4 16 -10z m-2141 -102 c-4 -7 -18 -28 -32 -47 -70 -95
-203 -331 -186 -331 3 0 2 -6 -4 -12 -9 -12 -49 -167 -67 -258 -4 -19 -10 -39
-13 -45 -6 -10 -8 -21 -25 -200 -7 -71 -12 -148 -10 -170 1 -22 4 -93 7 -158
3 -64 7 -121 9 -125 3 -4 8 -29 11 -55 12 -87 25 -147 38 -170 7 -12 13 -26
13 -32 2 -23 29 -92 46 -117 11 -14 20 -38 21 -52 1 -14 7 -26 12 -26 5 0 7
-3 3 -6 -3 -4 3 -24 13 -45 11 -21 20 -43 20 -49 0 -6 7 -18 15 -27 9 -8 14
-17 12 -19 -8 -9 -35 8 -40 24 -3 9 -24 49 -46 89 -22 40 -38 79 -35 86 3 8
-2 22 -11 31 -9 9 -14 16 -10 16 3 0 -2 11 -11 24 -8 14 -25 60 -35 103 -27
103 -25 95 -44 218 -1 6 -3 12 -5 15 -3 7 -8 127 -13 315 -5 173 10 311 35
329 14 10 27 46 33 91 7 41 43 183 53 201 5 11 17 52 27 92 9 39 22 72 27 72
6 0 8 6 5 14 -3 8 0 20 8 26 10 9 14 7 18 -7 3 -15 6 -13 15 9 13 31 61 104
111 166 34 41 49 54 35 30z m-74 -33 c0 -8 -4 -15 -10 -15 -5 0 -7 7 -4 15 4
8 8 15 10 15 2 0 4 -7 4 -15z m4365 -14 c-3 -6 -11 -11 -16 -11 -5 0 -4 6 3
14 14 16 24 13 13 -3z m-4401 -36 c-17 -26 -24 -31 -24 -16 0 10 28 41 36 41
2 0 -3 -11 -12 -25z m260 -2 c-9 -16 -23 -32 -30 -38 -23 -17 -144 -216 -138
-226 3 -5 -1 -11 -8 -14 -8 -3 -15 -15 -15 -27 -2 -23 -19 -45 -29 -36 -3 3 4
24 15 47 12 22 21 47 21 56 0 9 7 18 15 21 8 4 15 10 15 16 0 5 11 24 25 42
14 18 25 36 25 40 0 13 107 146 118 146 2 0 -4 -12 -14 -27z m6326 -33 c0 -5
13 -38 29 -72 16 -35 39 -92 50 -127 12 -35 25 -69 31 -76 5 -6 12 -38 16 -71
4 -32 11 -67 15 -76 14 -27 39 -168 39 -218 0 -25 -5 -52 -10 -60 -7 -11 -10
-6 -10 20 0 19 -5 53 -10 75 -5 22 -10 59 -11 83 -2 24 -7 46 -11 48 -4 3 -8
18 -8 34 0 16 -4 31 -9 34 -4 3 -6 16 -4 29 3 12 -7 49 -21 81 -14 32 -26 66
-26 76 0 9 -3 20 -7 24 -15 15 -73 206 -62 206 5 0 9 -4 9 -10z m-2440 -112
c-63 -48 -178 -145 -230 -195 -24 -24 -49 -43 -55 -42 -5 0 -4 3 3 6 6 2 12
11 12 19 0 8 5 14 10 14 6 0 10 6 10 13 0 6 13 18 29 25 16 7 55 37 88 67 32
30 61 55 64 55 3 0 26 16 50 35 24 19 48 35 53 35 5 0 -10 -15 -34 -32z m2606
-5 c-10 -10 -19 5 -10 18 6 11 8 11 12 0 2 -7 1 -15 -2 -18z m24 -48 c6 -19 9
-41 7 -48 -3 -7 -6 -4 -6 6 -1 10 -8 31 -16 47 -9 17 -11 30 -6 30 5 0 15 -16
21 -35z m-3030 -85 c-6 -11 -13 -20 -16 -20 -2 0 0 9 6 20 6 11 13 20 16 20 2
0 0 -9 -6 -20z m90 -120 c0 -12 -113 -120 -119 -114 -3 3 21 31 54 64 67 65
65 63 65 50z m-233 -138 c-69 -71 -101 -101 -105 -97 -3 3 -12 -1 -21 -8 -9
-6 8 11 37 40 28 28 52 55 52 60 0 9 42 31 49 26 3 -2 -3 -11 -12 -21z m98 -2
c-3 -5 -11 -10 -16 -10 -6 0 -7 5 -4 10 3 6 11 10 16 10 6 0 7 -4 4 -10z m-25
-23 c0 -2 -12 -14 -27 -28 l-28 -24 24 28 c23 25 31 32 31 24z m-225 -106 c-3
-6 -11 -11 -17 -11 -6 0 -6 6 2 15 14 17 26 13 15 -4z m3310 -91 c3 -5 1 -10
-4 -10 -6 0 -11 5 -11 10 0 6 2 10 4 10 3 0 8 -4 11 -10z m-3371 -35 c-4 -8
-11 -15 -16 -15 -6 0 -5 6 2 15 7 8 14 15 16 15 2 0 1 -7 -2 -15z m-44 -46
c-7 -11 -14 -19 -16 -16 -7 7 7 37 17 37 6 0 5 -9 -1 -21z m-116 -133 c-9 -23
-44 -42 -44 -22 0 7 7 16 15 20 8 3 15 13 15 23 0 12 3 14 10 7 6 -6 8 -18 4
-28z m-67 -80 c-7 -6 -40 -42 -73 -81 -32 -38 -71 -81 -85 -95 -14 -14 -47
-54 -74 -90 -70 -94 -94 -120 -356 -389 -131 -135 -242 -241 -246 -237 -4 4 9
22 30 39 20 18 37 38 37 45 0 6 5 12 11 12 11 0 59 46 59 56 0 2 16 18 35 35
19 17 35 36 35 42 0 6 31 42 69 81 38 39 107 114 153 166 46 52 105 116 131
141 26 26 47 54 47 63 0 9 4 16 9 16 18 0 180 170 193 202 4 11 13 15 23 12
13 -5 13 -8 2 -18z m3593 -42 c-5 -19 -12 -39 -16 -42 -4 -4 -4 4 -1 18 4 14
7 35 7 48 0 13 4 21 9 18 5 -3 5 -22 1 -42z m-3400 -47 c0 -8 9 -22 20 -32 11
-10 20 -22 20 -27 0 -6 -15 5 -33 24 -31 32 -37 48 -16 48 5 0 9 -6 9 -13z
m3270 -127 c0 -5 -2 -10 -4 -10 -3 0 -8 5 -11 10 -3 6 -1 10 4 10 6 0 11 -4
11 -10z m-3141 -59 c45 -65 56 -100 16 -53 -14 17 -25 37 -25 45 0 9 -6 20
-13 24 -12 7 -31 43 -23 43 2 0 22 -27 45 -59z m103 19 c4 0 8 -5 8 -12 0 -6
-9 -3 -20 7 -11 10 -20 25 -19 34 0 11 4 9 11 -6 6 -13 15 -23 20 -23z m3237
-36 c-31 -118 -62 -217 -84 -269 -8 -16 -17 -42 -20 -57 -4 -16 -11 -28 -15
-28 -4 0 -10 -13 -13 -28 -3 -15 -22 -57 -43 -92 -20 -36 -51 -94 -70 -130
-18 -36 -47 -81 -64 -100 -29 -33 -30 -33 -13 -5 10 17 26 39 35 49 10 11 18
26 18 33 0 13 42 94 83 161 13 20 31 60 41 87 10 28 24 64 31 80 26 59 95 268
95 287 0 21 19 62 26 56 2 -2 -1 -22 -7 -44z m-217 14 c-7 -7 -12 -8 -12 -2 0
14 12 26 19 19 2 -3 -1 -11 -7 -17z m-10 -57 c3 -21 -3 -49 -14 -70 -10 -19
-18 -45 -18 -58 0 -12 -6 -37 -14 -55 -7 -18 -19 -51 -26 -73 -24 -76 -29 -85
-44 -79 -12 5 -13 10 -4 24 7 10 16 16 22 13 5 -4 7 1 3 11 -4 10 -4 23 0 29
4 7 8 17 9 22 1 6 5 18 9 28 4 9 3 17 -3 17 -12 0 8 71 39 135 10 22 21 53 25
68 8 34 11 32 16 -12z m-2932 -3 c0 -12 -14 -10 -28 4 -19 19 -14 29 8 16 11
-7 20 -16 20 -20z m30 -42 c5 -14 18 -30 30 -36 11 -6 20 -17 20 -25 0 -8 5
-15 12 -15 6 0 8 -3 5 -6 -7 -7 -97 84 -97 98 0 18 21 7 30 -16z m-75 -75 c0
-4 17 -22 38 -40 20 -19 68 -75 106 -125 38 -50 78 -102 90 -115 12 -13 21
-28 21 -34 0 -15 -28 12 -35 34 -4 10 -13 19 -20 19 -8 0 -22 12 -32 28 -10
15 -34 44 -55 65 -21 20 -35 37 -32 37 4 0 -12 19 -35 42 -22 24 -41 47 -41
52 0 5 -16 25 -36 44 -19 19 -33 37 -30 40 3 3 0 12 -6 21 -7 9 6 -1 27 -22
22 -21 40 -42 40 -46z m233 -102 c42 -44 101 -105 131 -135 30 -29 52 -56 49
-59 -6 -7 -111 96 -147 143 -13 18 -29 32 -37 32 -8 0 -14 7 -14 14 0 8 -16
27 -35 42 -31 23 -45 44 -30 44 3 0 40 -36 83 -81z m-1112 -127 c-18 -16 -18
-16 -6 6 6 13 14 21 18 18 3 -4 -2 -14 -12 -24z m3731 -14 c-3 -8 -6 -5 -6 6
-1 11 2 17 5 13 3 -3 4 -12 1 -19z m-6402 -8 c3 -5 1 -10 -4 -10 -6 0 -11 5
-11 10 0 6 2 10 4 10 3 0 8 -4 11 -10z m2632 -12 c-3 -8 -6 -5 -6 6 -1 11 2
17 5 13 3 -3 4 -12 1 -19z m3744 -25 c-12 -20 -14 -14 -5 12 4 9 9 14 11 11 3
-2 0 -13 -6 -23z m-6336 -37 c15 -28 36 -59 46 -70 31 -32 22 -42 -9 -10 -16
16 -28 32 -26 35 2 3 -8 18 -22 34 -13 15 -24 37 -24 48 0 25 1 24 35 -37z
m2575 30 c0 -2 -7 -7 -16 -10 -8 -3 -12 -2 -9 4 6 10 25 14 25 6z m3731 -49
c-7 -19 -21 -43 -32 -53 -11 -10 -33 -42 -50 -71 -17 -29 -34 -53 -38 -53 -4
0 -20 -21 -37 -47 -16 -26 -55 -74 -86 -106 -32 -33 -58 -62 -58 -66 0 -3 -16
-15 -36 -26 -19 -10 -40 -27 -45 -37 -5 -10 -16 -18 -24 -18 -8 0 -15 -4 -15
-10 0 -5 -7 -7 -15 -4 -8 4 -15 1 -15 -4 0 -6 -11 -12 -25 -14 -14 -2 -26 -7
-26 -13 0 -14 -59 -44 -86 -45 -39 0 -25 14 49 50 92 44 200 116 263 174 27
25 53 46 58 46 4 0 6 4 3 9 -3 4 6 19 19 31 14 13 25 29 25 36 0 7 6 17 14 21
15 9 106 138 106 150 0 5 9 14 20 21 12 7 20 18 19 25 -3 15 12 49 18 43 3 -3
0 -20 -6 -39z m-2348 19 c4 -10 1 -13 -9 -9 -7 3 -14 9 -14 14 0 14 17 10 23
-5z m-1452 -39 c-10 -9 -11 -8 -5 6 3 10 9 15 12 12 3 -3 0 -11 -7 -18z m1294
13 c3 -5 1 -10 -4 -10 -6 0 -11 5 -11 10 0 6 2 10 4 10 3 0 8 -4 11 -10z m216
-17 c13 -16 33 -39 44 -53 l20 -25 -30 22 c-29 21 -75 68 -75 78 0 13 19 2 41
-22z m-4102 -53 c17 -27 27 -50 23 -50 -10 0 -62 77 -62 91 0 18 9 9 39 -41z
m3996 -25 c28 -29 31 -35 13 -34 -16 0 -64 59 -49 59 5 0 22 -11 36 -25z
m-3787 -62 c26 -37 56 -76 67 -88 65 -71 70 -78 50 -65 -11 7 -40 37 -65 67
-25 31 -51 61 -57 69 -7 7 -13 15 -13 19 0 3 -11 17 -25 31 -27 27 -30 34 -15
34 6 0 32 -30 58 -67z m-122 -30 c30 -32 62 -71 71 -88 8 -16 29 -45 46 -62
17 -18 26 -33 20 -33 -6 0 -49 44 -94 98 -46 53 -89 103 -96 110 -13 14 -17
32 -8 32 3 0 30 -26 61 -57z m3974 36 c0 -14 -17 -10 -23 5 -4 10 -1 13 9 9 7
-3 14 -9 14 -14z m272 -64 c12 -16 16 -25 8 -20 -41 23 -71 48 -80 66 -11 19
-10 19 19 1 17 -10 40 -31 53 -47z m-1922 25 c0 -5 -5 -10 -11 -10 -5 0 -7 5
-4 10 3 6 8 10 11 10 2 0 4 -4 4 -10z m-458 -87 c-7 -3 -19 -12 -28 -20 -8 -8
-17 -13 -20 -10 -3 2 7 14 22 26 15 12 30 18 33 15 3 -4 0 -9 -7 -11z m2259
-3 c13 -10 19 -19 13 -20 -7 0 -22 9 -35 20 -13 10 -19 19 -13 20 7 0 22 -9
35 -20z m2239 16 c0 -2 -7 -7 -16 -10 -8 -3 -12 -2 -9 4 6 10 25 14 25 6z
m-1986 -50 c16 -15 25 -26 19 -26 -5 0 -23 11 -39 25 -16 14 -32 25 -36 25 -5
0 -8 5 -8 10 0 14 25 0 64 -34z m-4369 4 c3 -11 10 -20 15 -20 4 0 11 -8 14
-17 6 -14 4 -14 -14 2 -27 25 -44 55 -31 55 5 0 13 -9 16 -20z m4175 -22 c0
-6 -7 -5 -15 2 -8 7 -15 17 -15 22 0 6 7 5 15 -2 8 -7 15 -17 15 -22z m2164
-15 c-37 -49 -121 -131 -165 -162 -21 -15 -11 -1 26 35 33 32 63 57 68 56 4
-1 7 2 7 7 0 5 18 28 40 52 22 24 40 48 40 53 0 5 3 6 6 3 4 -4 -6 -23 -22
-44z m-4554 17 c-24 -15 -36 -11 -14 4 10 8 21 12 24 10 2 -3 -2 -9 -10 -14z
m-55 -32 c-6 -14 -56 -41 -63 -33 -3 3 57 45 65 45 1 0 0 -6 -2 -12z m2487 4
c5 -14 129 -105 172 -127 22 -12 42 -27 44 -34 5 -14 -107 45 -124 66 -6 7
-14 13 -17 13 -4 0 -28 20 -54 45 -26 24 -43 45 -36 45 6 0 13 -4 15 -8z
m-2567 -51 c-7 -12 -112 -61 -130 -61 -7 0 -23 -8 -36 -19 -16 -12 -31 -16
-44 -11 -18 7 -18 9 8 19 16 6 31 11 34 11 3 0 29 10 57 23 112 51 122 55 111
38z m-1430 -32 c4 -6 17 -14 29 -19 20 -8 20 -9 -4 -9 -15 -1 -30 7 -38 19 -7
11 -8 20 -3 20 6 0 13 -5 16 -11z m4400 -19 c3 -5 2 -10 -4 -10 -5 0 -13 5
-16 10 -3 6 -2 10 4 10 5 0 13 -4 16 -10z m85 -40 c30 -16 50 -29 44 -30 -12
0 -69 26 -99 47 -34 23 -2 13 55 -17z m-3967 13 c-7 -2 -19 -2 -25 0 -7 3 -2
5 12 5 14 0 19 -2 13 -5z m642 -30 c-11 -7 -31 -13 -46 -13 -15 0 -31 -4 -34
-10 -8 -13 -55 -13 -75 0 -11 7 -7 10 18 11 17 1 35 3 40 4 4 1 22 6 40 10 17
4 32 11 32 15 0 5 10 6 21 3 21 -6 21 -7 4 -20z m-1005 -39 c22 -15 40 -28 40
-30 0 -9 -61 20 -76 37 -24 26 -11 24 36 -7z m4448 12 c15 -7 62 -19 105 -27
49 -8 72 -16 60 -20 -10 -3 -33 -2 -52 3 -18 5 -41 11 -50 13 -38 7 -97 26
-111 35 -24 16 15 13 48 -4z m-4148 -6 c13 -8 13 -10 -2 -10 -9 0 -20 5 -23
10 -8 13 5 13 25 0z m4995 -19 c-3 -6 -12 -11 -20 -11 -8 0 -26 -5 -42 -11
-35 -15 -73 -20 -73 -11 0 10 59 33 93 37 15 1 31 6 34 9 9 9 16 -1 8 -13z
m-4760 -40 c-3 -6 -11 -8 -17 -5 -6 4 -5 9 3 15 16 10 23 4 14 -10z m3720 -21
c3 -6 -1 -7 -9 -4 -18 7 -21 14 -7 14 6 0 13 -4 16 -10z m65 -31 c0 -13 -13
-11 -35 5 -18 13 -18 14 8 9 15 -3 27 -9 27 -14z m-3950 -30 c25 -14 -20 -9
-60 6 l-35 14 40 -6 c22 -3 47 -9 55 -14z m4035 1 c29 -13 34 -19 19 -19 -11
-1 -24 2 -28 7 -4 4 -22 12 -39 19 -21 8 -25 11 -12 11 11 1 38 -8 60 -18z
m1061 -8 c-7 -12 -46 -23 -46 -13 0 9 43 31 49 25 1 -1 0 -7 -3 -12z m-872
-45 c38 -11 64 -23 57 -25 -6 -2 -32 3 -58 11 -27 8 -69 20 -95 27 -27 7 -48
16 -48 20 0 9 40 0 144 -33z m-4074 23 l25 -8 -25 0 c-14 0 -38 4 -55 8 l-30
8 30 0 c17 0 41 -4 55 -8z m4890 0 c0 -5 -8 -10 -17 -10 -15 0 -16 2 -3 10 19
12 20 12 20 0z m-4833 -16 c-3 -3 -12 -4 -19 -1 -8 3 -5 6 6 6 11 1 17 -2 13
-5z m4162 -30 c37 -8 41 -24 6 -24 -14 0 -25 4 -25 10 0 5 -6 7 -14 4 -8 -3
-17 -1 -21 5 -7 12 9 14 54 5z m136 -24 c4 -6 -13 -10 -45 -10 -32 0 -49 4
-45 10 3 6 24 10 45 10 21 0 42 -4 45 -10z"/>
</g>
</svg>
